M48
INCH,TZ
T1C0.0157
T2C0.0394
T3C0.0512
%
G90
G05
T1
X12520Y-12598
X12520Y-22638
X12520Y-32677
X12520Y-42717
X13465Y-18740
X13465Y-28780
X13465Y-38819
X13465Y-48858
X15079Y-14173
X15079Y-24213
X15079Y-34252
X15079Y-44291
X15433Y-18898
X15433Y-28937
X15433Y-38976
X15433Y-49016
X17598Y-19764
X17598Y-29803
X17598Y-39843
X17598Y-49882
X19094Y-12638
X19094Y-22677
X19094Y-32717
X19094Y-42756
X19370Y-15354
X19370Y-25394
X19370Y-35433
X19370Y-45472
X22559Y-12598
X22559Y-22638
X22559Y-32677
X22559Y-42717
X23504Y-18740
X23504Y-28780
X23504Y-38819
X23504Y-48858
X25118Y-14173
X25118Y-24213
X25118Y-34252
X25118Y-44291
X25472Y-18898
X25472Y-28937
X25472Y-38976
X25472Y-49016
X27638Y-19764
X27638Y-29803
X27638Y-39843
X27638Y-49882
X29134Y-12638
X29134Y-22677
X29134Y-32717
X29134Y-42756
X29409Y-15354
X29409Y-25394
X29409Y-35433
X29409Y-45472
X32598Y-12598
X32598Y-22638
X32598Y-32677
X32598Y-42717
X33543Y-18740
X33543Y-28780
X33543Y-38819
X33543Y-48858
X35157Y-14173
X35157Y-24213
X35157Y-34252
X35157Y-44291
X35512Y-18898
X35512Y-28937
X35512Y-38976
X35512Y-49016
X37677Y-19764
X37677Y-29803
X37677Y-39843
X37677Y-49882
X39173Y-12638
X39173Y-22677
X39173Y-32717
X39173Y-42756
X39449Y-15354
X39449Y-25394
X39449Y-35433
X39449Y-45472
X42638Y-12598
X42638Y-22638
X42638Y-32677
X42638Y-42717
X43583Y-18740
X43583Y-28780
X43583Y-38819
X43583Y-48858
X45197Y-14173
X45197Y-24213
X45197Y-34252
X45197Y-44291
X45551Y-18898
X45551Y-28937
X45551Y-38976
X45551Y-49016
X47717Y-19764
X47717Y-29803
X47717Y-39843
X47717Y-49882
X49213Y-12638
X49213Y-22677
X49213Y-32717
X49213Y-42756
X49488Y-15354
X49488Y-25394
X49488Y-35433
X49488Y-45472
T2
X50276Y-25906
X50276Y-26906
X50276Y-27906
X50276Y-28906
X42874Y-38268
X42874Y-39268
X42874Y-40268
X32835Y-28228
X32835Y-29228
X32835Y-30228
X40236Y-15866
X40236Y-16866
X40236Y-17866
X40236Y-18866
X20157Y-25906
X20157Y-26906
X20157Y-27906
X20157Y-28906
X20157Y-35945
X20157Y-36945
X20157Y-37945
X20157Y-38945
X22795Y-38268
X22795Y-39268
X22795Y-40268
X32835Y-48307
X32835Y-49307
X32835Y-50307
X32835Y-38268
X32835Y-39268
X32835Y-40268
X30197Y-35945
X30197Y-36945
X30197Y-37945
X30197Y-38945
X20157Y-45984
X20157Y-46984
X20157Y-47984
X20157Y-48984
X20157Y-15866
X20157Y-16866
X20157Y-17866
X20157Y-18866
X32835Y-18189
X32835Y-19189
X32835Y-20189
X42874Y-48307
X42874Y-49307
X42874Y-50307
X50276Y-35945
X50276Y-36945
X50276Y-37945
X50276Y-38945
X12756Y-18189
X12756Y-19189
X12756Y-20189
X22795Y-18189
X22795Y-19189
X22795Y-20189
X12756Y-38268
X12756Y-39268
X12756Y-40268
X50276Y-45984
X50276Y-46984
X50276Y-47984
X50276Y-48984
X40236Y-35945
X40236Y-36945
X40236Y-37945
X40236Y-38945
X42874Y-28228
X42874Y-29228
X42874Y-30228
X12756Y-28228
X12756Y-29228
X12756Y-30228
X50276Y-15866
X50276Y-16866
X50276Y-17866
X50276Y-18866
X30197Y-45984
X30197Y-46984
X30197Y-47984
X30197Y-48984
X12756Y-48307
X12756Y-49307
X12756Y-50307
X30197Y-15866
X30197Y-16866
X30197Y-17866
X30197Y-18866
X30197Y-25906
X30197Y-26906
X30197Y-27906
X30197Y-28906
X40236Y-45984
X40236Y-46984
X40236Y-47984
X40236Y-48984
X40236Y-25906
X40236Y-26906
X40236Y-27906
X40236Y-28906
X22795Y-28228
X22795Y-29228
X22795Y-30228
X22795Y-48307
X22795Y-49307
X22795Y-50307
X42874Y-18189
X42874Y-19189
X42874Y-20189
T3
X23898Y-33122
X23898Y-35122
X33937Y-33122
X33937Y-35122
X33937Y-13043
X33937Y-15043
X13858Y-23083
X13858Y-25083
X43976Y-13043
X43976Y-15043
X23898Y-43161
X23898Y-45161
X33937Y-23083
X33937Y-25083
X43976Y-33122
X43976Y-35122
X33937Y-43161
X33937Y-45161
X13858Y-43161
X13858Y-45161
X13858Y-13043
X13858Y-15043
X43976Y-43161
X43976Y-45161
X43976Y-23083
X43976Y-25083
X23898Y-13043
X23898Y-15043
X23898Y-23083
X23898Y-25083
X13858Y-33122
X13858Y-35122
T0
M30
