M48
INCH,TZ
T1C0.0197
%
G90
G05
T1
X46280Y-31201
X46280Y-31791
X46575Y-31201
X46575Y-31791
X46870Y-31201
X46870Y-31791
X26201Y-31201
X26201Y-31791
X26496Y-31201
X26496Y-31791
X26791Y-31201
X26791Y-31791
X41240Y-36220
X41240Y-36516
X41240Y-36811
X41831Y-36220
X41831Y-36516
X41831Y-36811
X16161Y-21161
X16161Y-21752
X16457Y-21161
X16457Y-21752
X16752Y-21161
X16752Y-21752
X21161Y-26181
X21161Y-26476
X21161Y-26772
X21752Y-26181
X21752Y-26476
X21752Y-26772
X16161Y-31201
X16161Y-31791
X16457Y-31201
X16457Y-31791
X16752Y-31201
X16752Y-31791
X36240Y-41240
X36240Y-41831
X36535Y-41240
X36535Y-41831
X36831Y-41240
X36831Y-41831
X21161Y-36220
X21161Y-36516
X21161Y-36811
X21752Y-36220
X21752Y-36516
X21752Y-36811
X46280Y-41240
X46280Y-41831
X46575Y-41240
X46575Y-41831
X46870Y-41240
X46870Y-41831
X41240Y-46260
X41240Y-46555
X41240Y-46850
X41831Y-46260
X41831Y-46555
X41831Y-46850
X36240Y-31201
X36240Y-31791
X36535Y-31201
X36535Y-31791
X36831Y-31201
X36831Y-31791
X41240Y-26181
X41240Y-26476
X41240Y-26772
X41831Y-26181
X41831Y-26476
X41831Y-26772
X31201Y-26181
X31201Y-26476
X31201Y-26772
X31791Y-26181
X31791Y-26476
X31791Y-26772
X21161Y-16142
X21161Y-16437
X21161Y-16732
X21752Y-16142
X21752Y-16437
X21752Y-16732
X26201Y-21161
X26201Y-21752
X26496Y-21161
X26496Y-21752
X26791Y-21161
X26791Y-21752
X31201Y-36220
X31201Y-36516
X31201Y-36811
X31791Y-36220
X31791Y-36516
X31791Y-36811
X31201Y-16142
X31201Y-16437
X31201Y-16732
X31791Y-16142
X31791Y-16437
X31791Y-16732
X46280Y-21161
X46280Y-21752
X46575Y-21161
X46575Y-21752
X46870Y-21161
X46870Y-21752
X26201Y-41240
X26201Y-41831
X26496Y-41240
X26496Y-41831
X26791Y-41240
X26791Y-41831
X31201Y-46260
X31201Y-46555
X31201Y-46850
X31791Y-46260
X31791Y-46555
X31791Y-46850
X16161Y-41240
X16161Y-41831
X16457Y-41240
X16457Y-41831
X16752Y-41240
X16752Y-41831
X36240Y-21161
X36240Y-21752
X36535Y-21161
X36535Y-21752
X36831Y-21161
X36831Y-21752
X41240Y-16142
X41240Y-16437
X41240Y-16732
X41831Y-16142
X41831Y-16437
X41831Y-16732
X21161Y-46260
X21161Y-46555
X21161Y-46850
X21752Y-46260
X21752Y-46555
X21752Y-46850
T0
M30
